<mxfile host="app.diagrams.net" modified="2021-04-17T12:52:01.128Z" agent="5.0 (Windows NT 10.0; Win64; x64) AppleWebKit/537.36 (KHTML, like Gecko) Chrome/76.0.3809.132 Safari/537.36" etag="8tkAmaNsXatGIlH2UOjJ" version="14.6.1" type="github">
  <diagram id="8xcl95ikhtB72L_NsTMW" name="Page-1">
    <mxGraphModel dx="1695" dy="1580" grid="1" gridSize="10" guides="1" tooltips="1" connect="1" arrows="1" fold="1" page="1" pageScale="1" pageWidth="827" pageHeight="1169" math="0" shadow="0">
      <root>
        <mxCell id="0" />
        <mxCell id="1" parent="0" />
        <mxCell id="ezbuyei94aK4LzK8h9UH-1" value="" style="whiteSpace=wrap;html=1;" vertex="1" parent="1">
          <mxGeometry x="-800" y="-340" width="120" height="60" as="geometry" />
        </mxCell>
      </root>
    </mxGraphModel>
  </diagram>
</mxfile>
